<?xml version="1.0" encoding="UTF-8"?>
<svg xmlns="http://www.w3.org/2000/svg" viewBox="0 0 960 240" role="img" aria-labelledby="logoTitle logoDesc">
  <title id="logoTitle">LLM Agent Control Plane</title>
  <desc id="logoDesc">Shield, broker, and connected agent nodes representing external authorization for tool-connected LLM agents.</desc>

  <g id="icon" transform="translate(0,0)">
    <polygon
      points="120,36 178,68 178,132 120,164 62,132 62,68"
      fill="none"
      stroke="#0B1220"
      stroke-width="3.5"
      stroke-linejoin="round"
    />

    <path
      d="M 78 118 Q 120 148 162 118 L 162 138 Q 120 172 78 138 Z"
      fill="#14B8A6"
      stroke="#0B1220"
      stroke-width="2"
      stroke-linejoin="round"
    />

    <rect x="108" y="108" width="24" height="22" rx="3" fill="#1E293B" stroke="#0B1220" stroke-width="1.5"/>
    <circle cx="120" cy="114" r="5" fill="#E2E8F0" stroke="#06B6D4" stroke-width="1.5"/>
    <path d="M 114 122 L 126 122" stroke="#06B6D4" stroke-width="2" stroke-linecap="round"/>

    <circle cx="92" cy="78" r="7" fill="#14B8A6" stroke="#0B1220" stroke-width="1.5"/>
    <circle cx="120" cy="64" r="7" fill="#06B6D4" stroke="#0B1220" stroke-width="1.5"/>
    <circle cx="148" cy="78" r="7" fill="#14B8A6" stroke="#0B1220" stroke-width="1.5"/>
    <circle cx="120" cy="92" r="9" fill="#2563EB" stroke="#0B1220" stroke-width="1.5"/>

    <path d="M 92 78 L 120 92 M 120 64 L 120 92 M 148 78 L 120 92" stroke="#1E293B" stroke-width="2" stroke-linecap="round"/>

    <path d="M 28 96 L 58 96 M 28 112 L 54 112" stroke="#06B6D4" stroke-width="2" stroke-linecap="round"/>
    <circle cx="24" cy="96" r="4" fill="#06B6D4"/>
    <circle cx="24" cy="112" r="4" fill="#14B8A6"/>

    <path d="M 186 96 L 212 96 M 182 112 L 212 112" stroke="#06B6D4" stroke-width="2" stroke-linecap="round"/>
    <circle cx="216" cy="96" r="4" fill="#06B6D4"/>
    <circle cx="216" cy="112" r="4" fill="#14B8A6"/>

    <line x1="52" y1="152" x2="188" y2="152" stroke="#1E293B" stroke-width="2.5" stroke-linecap="round"/>
    <line x1="64" y1="162" x2="176" y2="162" stroke="#2563EB" stroke-width="2" stroke-linecap="round" opacity="0.85"/>
  </g>

  <text
    x="260"
    y="128"
    font-family="Inter, ui-sans-serif, system-ui, -apple-system, BlinkMacSystemFont, 'Segoe UI', sans-serif"
    font-size="40"
    font-weight="600"
    letter-spacing="-0.5"
  >
    <tspan fill="#0B1220">LLM Agent </tspan>
    <tspan fill="#14B8A6">Control Plane</tspan>
  </text>
</svg>
